<svg xmlns="http://www.w3.org/2000/svg" xmlns:xlink="http://www.w3.org/1999/xlink" width="500" zoomAndPan="magnify" viewBox="0 0 375 374.999991" height="500" preserveAspectRatio="xMidYMid meet" version="1.2"><defs/><g id="ed94f746ef"><g style="fill:#000000;fill-opacity:1;"><g transform="translate(-5.838738, 289.548157)"><path style="stroke:none" d="M 98.140625 -3.328125 C 108.210938 -3.328125 117.125 -6.039062 124.875 -11.46875 C 132.625 -16.90625 136.5 -25.109375 136.5 -36.078125 C 136.5 -47.054688 132.320312 -55.460938 123.96875 -61.296875 C 115.613281 -67.140625 103.734375 -72.222656 88.328125 -76.546875 C 72.929688 -80.878906 61.757812 -84.65625 54.8125 -87.875 C 47.863281 -91.09375 41.269531 -95.320312 35.03125 -100.5625 C 22.550781 -111.03125 16.3125 -127.238281 16.3125 -149.1875 C 16.3125 -167.101562 22.703125 -182.5 35.484375 -195.375 C 48.265625 -208.257812 65.726562 -214.703125 87.875 -214.703125 C 98.539062 -214.703125 109.660156 -213.140625 121.234375 -210.015625 C 132.816406 -206.898438 140.015625 -205.34375 142.828125 -205.34375 C 145.648438 -205.34375 148.171875 -207.359375 150.390625 -211.390625 L 153.703125 -211.390625 L 155.828125 -150.390625 L 150.984375 -150.390625 C 141.328125 -167.898438 131.210938 -181.941406 120.640625 -192.515625 C 110.066406 -203.085938 98.585938 -208.375 86.203125 -208.375 C 73.828125 -208.375 64.21875 -205.503906 57.375 -199.765625 C 50.53125 -194.023438 47.109375 -186.375 47.109375 -176.8125 C 47.109375 -167.25 51.179688 -159.898438 59.328125 -154.765625 C 67.484375 -149.628906 77.5 -145.453125 89.375 -142.234375 C 101.257812 -139.015625 109.0625 -136.800781 112.78125 -135.59375 C 116.507812 -134.382812 121.140625 -132.722656 126.671875 -130.609375 C 132.210938 -128.492188 136.742188 -126.273438 140.265625 -123.953125 C 143.796875 -121.640625 147.519531 -118.722656 151.4375 -115.203125 C 155.363281 -111.679688 158.4375 -107.804688 160.65625 -103.578125 C 166.09375 -93.910156 168.8125 -82.4375 168.8125 -69.15625 C 168.8125 -47.414062 162.015625 -29.953125 148.421875 -16.765625 C 134.835938 -3.578125 116.972656 3.015625 94.828125 3.015625 C 83.347656 3.015625 70.207031 1.503906 55.40625 -1.515625 C 40.613281 -4.535156 32.410156 -6.046875 30.796875 -6.046875 C 27.984375 -6.046875 25.269531 -3.023438 22.65625 3.015625 L 18.421875 3.015625 L 15.40625 -68.859375 L 20.53125 -68.859375 C 29.394531 -51.335938 40.71875 -36.035156 54.5 -22.953125 C 68.289062 -9.867188 82.835938 -3.328125 98.140625 -3.328125 Z M 98.140625 -3.328125 "/></g></g><g style="fill:#000000;fill-opacity:1;"><g transform="translate(172.314169, 289.548157)"><path style="stroke:none" d="M 120.796875 -208.671875 C 89.585938 -208.671875 73.984375 -178.570312 73.984375 -118.375 L 73.984375 -94.515625 C 73.984375 -65.929688 78.109375 -43.535156 86.359375 -27.328125 C 94.617188 -11.117188 106.800781 -3.015625 122.90625 -3.015625 C 145.050781 -3.015625 165.382812 -24.554688 183.90625 -67.640625 L 189.34375 -67.640625 L 187.234375 -0.296875 L 183.90625 -0.296875 C 182.695312 -2.515625 181.585938 -4.078125 180.578125 -4.984375 C 179.578125 -5.890625 178.117188 -6.34375 176.203125 -6.34375 C 174.296875 -6.34375 167 -4.78125 154.3125 -1.65625 C 141.625 1.457031 128.738281 3.015625 115.65625 3.015625 C 82.84375 3.015625 57.425781 -5.835938 39.40625 -23.546875 C 21.382812 -41.265625 12.375 -67.890625 12.375 -103.421875 C 12.375 -138.960938 21.785156 -166.394531 40.609375 -185.71875 C 59.441406 -205.039062 84.757812 -214.703125 116.5625 -214.703125 C 128.84375 -214.703125 140.867188 -213.140625 152.640625 -210.015625 C 164.421875 -206.898438 171.316406 -205.34375 173.328125 -205.34375 C 175.347656 -205.34375 176.859375 -205.796875 177.859375 -206.703125 C 178.867188 -207.609375 179.976562 -209.171875 181.1875 -211.390625 L 184.515625 -211.390625 L 186.921875 -145.859375 L 181.5 -145.859375 C 172.4375 -166.191406 163.125 -181.742188 153.5625 -192.515625 C 144 -203.285156 133.078125 -208.671875 120.796875 -208.671875 Z M 120.796875 -208.671875 "/></g></g></g></svg>